# xmcd
#
# Track frame offsets:
#	150
#	16157
#	26146
#	41483
#	64025
#	83564
#	98252
#	115055
#	131030
#	150245
#	162319
#	172606
#
# Disc length: 2575 seconds
# Revision: 0
# Processed by: cddbd v1.5.2PL0 Copyright (c) Steve Scherf et al.
# Submitted via: dBpowerAMP V12.0
#
DISCID=7a0a0d0c
DTITLE=Jenny Whiteley - Dear
DYEAR=2006
DGENRE=Country
TTITLE0=Indoor Lightning
TTITLE1=Banjo Girl
TTITLE2=Unsung
TTITLE3=Heart of Gold
TTITLE4=Write Me Away
TTITLE5=Take Your Time and Do It Right
TTITLE6=Other Side of Life
TTITLE7=Yellow Couch
TTITLE8=Four Storey Story
TTITLE9=You're the One
TTITLE10=Every Minute That Your'e in It
TTITLE11=When It Rains I Pour
EXTD=
EXTT0=
EXTT1=
EXTT2=
EXTT3=
EXTT4=
EXTT5=
EXTT6=
EXTT7=
EXTT8=
EXTT9=
EXTT10=
EXTT11=
PLAYORDER=
